<?xml version="1.0" standalone="no"?>
<!DOCTYPE svg PUBLIC "-//W3C//DTD SVG 20010904//EN"
 "http://www.w3.org/TR/2001/REC-SVG-20010904/DTD/svg10.dtd">
<svg version="1.0" xmlns="http://www.w3.org/2000/svg"
 width="210.000000pt" height="129.000000pt" viewBox="0 0 210.000000 129.000000"
 preserveAspectRatio="xMidYMid meet">

<g transform="translate(0.000000,129.000000) scale(0.100000,-0.100000)"
fill="#000000" stroke="none">
<path d="M930 1184 c-6 -14 -10 -29 -10 -34 0 -5 -6 -13 -13 -17 -7 -4 -24
-23 -37 -42 -23 -33 -24 -34 -33 -13 -6 12 -16 22 -23 22 -16 0 -43 -50 -37
-67 6 -18 32 -16 39 1 3 8 12 12 19 10 7 -3 16 -1 19 4 3 6 15 8 25 5 13 -3
21 2 26 17 5 17 9 19 21 9 8 -6 17 -9 21 -6 3 4 13 1 21 -5 12 -10 18 -7 36
13 13 14 31 32 42 38 18 12 18 12 0 7 -10 -4 -24 -2 -31 4 -17 14 -40 3 -53
-26 -7 -13 -17 -24 -23 -24 -12 0 -8 44 9 98 13 38 -4 45 -18 6z m-30 -94 c-6
-12 -14 -19 -17 -17 -2 3 1 15 7 27 6 12 14 19 17 17 2 -3 -1 -15 -7 -27z
m104 22 c2 -4 1 -14 -4 -21 -10 -17 -31 -5 -23 14 6 16 19 20 27 7z m-184 -46
c0 -16 -18 -31 -27 -22 -8 8 5 36 17 36 5 0 10 -6 10 -14z"/>
<path d="M1179 1195 c-32 -17 -46 -45 -23 -45 12 0 8 -10 -15 -42 -17 -23 -29
-44 -26 -46 10 -10 90 93 93 120 2 15 2 28 0 28 -2 -1 -15 -7 -29 -15z m11
-19 c0 -2 -7 -7 -16 -10 -8 -3 -12 -2 -9 4 6 10 25 14 25 6z"/>
<path d="M1221 1176 c-9 -11 -9 -15 1 -18 8 -3 6 -14 -10 -40 -35 -56 -26 -61
25 -13 25 25 49 43 51 40 3 -2 -7 -23 -22 -46 -31 -46 -29 -77 4 -59 16 8 20
8 20 -3 0 -17 52 -29 85 -21 20 5 23 3 18 -15 -6 -25 12 -28 21 -3 3 9 9 23
12 31 5 11 0 12 -22 7 -21 -5 -25 -4 -14 3 8 6 11 13 8 16 -4 4 -17 0 -30 -9
-22 -16 -58 -22 -58 -10 0 4 8 13 17 20 28 20 9 27 -31 10 -44 -18 -45 -11 -6
42 17 23 30 46 30 52 0 18 -28 10 -61 -17 l-32 -27 16 31 c21 39 4 61 -22 29z"/>
<path d="M659 1110 c-1 -14 -1 -48 1 -76 2 -50 -12 -79 -24 -49 -7 20 -32 19
-40 -1 -16 -43 6 -82 29 -51 7 10 17 17 24 17 6 0 11 7 11 15 0 9 8 14 22 12
16 -1 23 4 25 18 1 11 0 14 -3 8 -14 -30 -24 -8 -23 48 1 33 -3 65 -10 72 -8
8 -11 5 -12 -13z m-36 -157 c-4 -10 -9 -11 -16 -4 -5 5 -7 18 -3 28 6 14 9 15
16 4 4 -8 6 -21 3 -28z"/>
<path d="M710 1065 c-8 -9 -8 -15 -2 -15 6 0 12 6 15 13 2 6 7 9 11 6 9 -9 -4
-40 -15 -33 -5 3 -9 0 -9 -6 0 -8 9 -10 25 -6 24 6 25 5 19 -21 -4 -16 -11
-35 -16 -43 -6 -10 -7 -7 -3 10 5 19 4 22 -4 10 -6 -8 -8 -23 -5 -34 4 -12 2
-16 -5 -12 -6 4 -11 0 -11 -8 0 -30 21 -16 40 27 23 50 24 64 8 100 -15 30
-30 34 -48 12z"/>
<path d="M1479 1046 c12 -14 12 -18 -5 -31 -18 -13 -31 -18 -45 -17 -3 1 -4
-10 -1 -23 3 -18 11 -25 28 -25 17 0 22 -4 17 -16 -4 -10 1 -17 16 -21 11 -3
21 -11 21 -18 0 -16 23 -25 58 -24 26 1 26 1 -3 8 -39 8 -35 25 7 31 24 4 29
7 16 12 -9 4 -32 4 -51 1 -20 -3 -37 -1 -41 6 -4 6 -3 11 1 11 5 0 18 7 29 15
17 13 14 14 -33 8 -63 -7 -68 5 -15 34 30 18 41 19 58 10 12 -7 19 -18 17 -24
-3 -7 0 -13 7 -13 6 0 8 5 5 10 -3 6 0 10 7 10 7 0 2 7 -10 16 -18 12 -20 19
-12 35 12 22 7 24 -21 9 -13 -8 -26 -7 -41 1 -21 11 -22 11 -9 -5z"/>
<path d="M496 1024 c-12 -31 -6 -120 10 -142 21 -30 52 -29 60 3 3 13 4 30 1
37 -3 7 -6 3 -6 -10 -1 -27 -29 -41 -42 -21 -13 21 -12 142 2 133 6 -3 9 -19
5 -35 -3 -17 -1 -29 5 -29 16 0 22 30 11 56 -13 27 -37 32 -46 8z"/>
<path d="M600 614 c-202 -236 -183 -208 -162 -234 l18 -23 113 42 c62 22 117
41 122 41 5 0 9 -22 9 -48 l0 -49 98 -6 c53 -4 125 -7 160 -7 47 0 62 -3 62
-14 0 -19 -27 -46 -47 -46 -11 0 -14 -6 -9 -23 3 -12 6 -25 6 -29 0 -4 15 -10
34 -14 28 -5 36 -12 41 -34 3 -16 14 -32 23 -36 28 -12 324 -17 355 -5 31 12
52 54 64 126 l8 50 3 -47 c5 -79 22 -54 22 32 0 81 12 123 43 148 20 17 27
-23 27 -159 0 -66 4 -109 10 -109 6 0 10 46 10 118 0 119 10 190 29 201 17 11
31 60 31 107 0 34 -8 58 -35 100 -41 64 -58 73 -93 52 -23 -14 -28 -14 -48 -1
-22 14 -24 12 -71 -68 l-48 -83 -3 37 -3 37 -176 0 -177 0 29 30 c23 24 26 32
15 45 -10 12 -41 15 -174 15 l-161 0 -125 -146z"/>
</g>
</svg>
